<svg width="20" height="20" viewBox="0 0 20 20" fill="none" xmlns="http://www.w3.org/2000/svg">
<path fill-rule="evenodd" clip-rule="evenodd" d="M10 20C15.5228 20 20 15.5228 20 10C20 4.47715 15.5228 0 10 0C4.47715 0 0 4.47715 0 10C0 15.5228 4.47715 20 10 20ZM9.25879 9.77832L5.50586 6.02539C5.43945 5.95898 5.39453 5.88086 5.37109 5.79102C5.35156 5.70117 5.35156 5.61133 5.37109 5.52148C5.39453 5.43164 5.43945 5.35352 5.50586 5.28711C5.57227 5.2168 5.65039 5.17188 5.74023 5.15234C5.83008 5.12891 5.91992 5.12891 6.00977 5.15234C6.10352 5.17188 6.18359 5.2168 6.25 5.28711L10 9.03711L13.75 5.28711C13.8164 5.2168 13.8945 5.17188 13.9844 5.15234C14.0742 5.12891 14.1641 5.12891 14.2539 5.15234C14.3438 5.17188 14.4238 5.2168 14.4941 5.28711C14.5605 5.35352 14.6055 5.43164 14.6289 5.52148C14.6523 5.61133 14.6523 5.70117 14.6289 5.79102C14.6055 5.88086 14.5605 5.95898 14.4941 6.02539L10.7412 9.77832L14.4941 13.5312C14.5605 13.5977 14.6035 13.6758 14.623 13.7656C14.6465 13.8555 14.6465 13.9453 14.623 14.0352C14.6035 14.125 14.5605 14.2031 14.4941 14.2695C14.4277 14.3398 14.3477 14.3848 14.2539 14.4043C14.1641 14.4277 14.0742 14.4277 13.9844 14.4043C13.8945 14.3809 13.8164 14.3359 13.75 14.2695L10 10.5195L6.25 14.2695C6.18359 14.3359 6.10547 14.3809 6.01562 14.4043C5.92578 14.4277 5.83594 14.4277 5.74609 14.4043C5.65625 14.3809 5.57617 14.3359 5.50586 14.2695C5.43555 14.2031 5.38867 14.125 5.36523 14.0352C5.3457 13.9453 5.34766 13.8555 5.37109 13.7656C5.39453 13.6758 5.43945 13.5977 5.50586 13.5312L9.25879 9.77832Z" fill="black"/>
</svg>
