<svg width="32" height="33" viewBox="0 0 32 33" fill="none" xmlns="http://www.w3.org/2000/svg">
<rect x="2" y="2.44434" width="28" height="28" rx="14" fill="#FF7474"/>
<path d="M12.6186 10.1365C12.6186 11.071 11.8085 11.8286 10.8093 11.8286C9.81004 11.8286 9 11.071 9 10.1365C9 9.20194 9.81004 8.44434 10.8093 8.44434C11.8085 8.44434 12.6186 9.20194 12.6186 10.1365Z" fill="white"/>
<path d="M9.24742 13.0724H12.3402V22.4443H9.24742V13.0724Z" fill="white"/>
<path d="M17.3196 13.0724H14.2268V22.4443H17.3196C17.3196 22.4443 17.3196 19.4939 17.3196 17.6492C17.3196 16.542 17.6977 15.4299 19.2062 15.4299C20.911 15.4299 20.9008 16.8789 20.8928 18.0014C20.8824 19.4688 20.9072 20.9662 20.9072 22.4443H24V17.4981C23.9738 14.3397 23.1508 12.8844 20.4433 12.8844C18.8354 12.8844 17.8387 13.6144 17.3196 14.2748V13.0724Z" fill="white"/>
</svg>
