<svg width="109" height="24" viewBox="0 0 109 24" fill="none" xmlns="http://www.w3.org/2000/svg">
<g clip-path="url(#clip0_164_2049)">
<circle cx="27" cy="-3" r="15" fill="#FF7474"/>
<circle cx="27" cy="27" r="15" fill="#FF7474"/>
<circle cx="-3" cy="-3" r="15" fill="#FF7474"/>
<circle cx="-3" cy="27" r="15" fill="#FF7474"/>
</g>
<path d="M38.6193 8.09091V9.79545H32.4545V8.09091H38.6193ZM34.1449 19V6.8267C34.1449 6.14489 34.294 5.57907 34.5923 5.12926C34.8906 4.67472 35.286 4.33617 35.7784 4.11364C36.2708 3.88636 36.8059 3.77273 37.3835 3.77273C37.8097 3.77273 38.1742 3.80824 38.4773 3.87926C38.7803 3.94555 39.0052 4.0071 39.152 4.06392L38.6548 5.78267C38.5554 5.75426 38.4276 5.72112 38.2713 5.68324C38.1151 5.64062 37.9257 5.61932 37.7031 5.61932C37.187 5.61932 36.8177 5.74716 36.5952 6.00284C36.3774 6.25852 36.2685 6.62784 36.2685 7.1108V19H34.1449ZM42.9339 4.45455V19H40.8104V4.45455H42.9339ZM50.386 19.2202C49.3633 19.2202 48.4708 18.9858 47.7085 18.517C46.9461 18.0483 46.3543 17.3925 45.9329 16.5497C45.5115 15.7069 45.3008 14.7221 45.3008 13.5952C45.3008 12.4635 45.5115 11.474 45.9329 10.6264C46.3543 9.77888 46.9461 9.12074 47.7085 8.65199C48.4708 8.18324 49.3633 7.94886 50.386 7.94886C51.4087 7.94886 52.3013 8.18324 53.0636 8.65199C53.8259 9.12074 54.4177 9.77888 54.8391 10.6264C55.2605 11.474 55.4712 12.4635 55.4712 13.5952C55.4712 14.7221 55.2605 15.7069 54.8391 16.5497C54.4177 17.3925 53.8259 18.0483 53.0636 18.517C52.3013 18.9858 51.4087 19.2202 50.386 19.2202ZM50.3931 17.4375C51.056 17.4375 51.6052 17.2623 52.0408 16.9119C52.4764 16.5616 52.7984 16.0952 53.0067 15.5128C53.2198 14.9304 53.3263 14.2888 53.3263 13.5881C53.3263 12.892 53.2198 12.2528 53.0067 11.6705C52.7984 11.0833 52.4764 10.6122 52.0408 10.2571C51.6052 9.90199 51.056 9.72443 50.3931 9.72443C49.7255 9.72443 49.1715 9.90199 48.7312 10.2571C48.2956 10.6122 47.9712 11.0833 47.7582 11.6705C47.5498 12.2528 47.4457 12.892 47.4457 13.5881C47.4457 14.2888 47.5498 14.9304 47.7582 15.5128C47.9712 16.0952 48.2956 16.5616 48.7312 16.9119C49.1715 17.2623 49.7255 17.4375 50.3931 17.4375ZM66.8029 8.09091L62.8469 19H60.5742L56.6112 8.09091H58.891L61.6538 16.4858H61.7674L64.5231 8.09091H66.8029ZM73.1293 19.2202C72.0545 19.2202 71.1288 18.9905 70.3523 18.5312C69.5805 18.0672 68.9839 17.4162 68.5625 16.5781C68.1458 15.7353 67.9375 14.7481 67.9375 13.6165C67.9375 12.4991 68.1458 11.5142 68.5625 10.6619C68.9839 9.80966 69.571 9.14441 70.3239 8.66619C71.0814 8.18797 71.9669 7.94886 72.9801 7.94886C73.5956 7.94886 74.1922 8.05066 74.7699 8.25426C75.3475 8.45786 75.866 8.77746 76.3253 9.21307C76.7846 9.64867 77.1468 10.2145 77.4119 10.9105C77.6771 11.6018 77.8097 12.4422 77.8097 13.4318V14.1847H69.1378V12.5938H75.7287C75.7287 12.035 75.6151 11.5402 75.3878 11.1094C75.1605 10.6738 74.8409 10.3305 74.429 10.0795C74.0218 9.8286 73.5436 9.70312 72.9943 9.70312C72.3977 9.70312 71.8769 9.84991 71.4318 10.1435C70.9915 10.4323 70.6506 10.8111 70.4091 11.2798C70.1723 11.7438 70.054 12.2481 70.054 12.7926V14.0355C70.054 14.7647 70.1818 15.3849 70.4375 15.8963C70.6979 16.4077 71.0601 16.7983 71.5241 17.0682C71.9882 17.3333 72.5303 17.4659 73.1506 17.4659C73.553 17.4659 73.92 17.4091 74.2514 17.2955C74.5829 17.1771 74.8693 17.0019 75.1108 16.7699C75.3523 16.5379 75.5369 16.2514 75.6648 15.9105L77.6747 16.2727C77.5137 16.8646 77.2249 17.383 76.8082 17.8281C76.3963 18.2685 75.8778 18.6117 75.2528 18.858C74.6326 19.0994 73.9247 19.2202 73.1293 19.2202ZM80.1658 19V8.09091H82.2184V9.82386H82.332C82.5309 9.23674 82.8813 8.77509 83.3832 8.43892C83.8898 8.09801 84.4627 7.92756 85.1019 7.92756C85.2345 7.92756 85.3907 7.93229 85.5707 7.94176C85.7553 7.95123 85.8997 7.96307 86.0039 7.97727V10.0085C85.9187 9.98485 85.7672 9.95881 85.5494 9.9304C85.3316 9.89725 85.1138 9.88068 84.896 9.88068C84.3941 9.88068 83.9466 9.98722 83.5536 10.2003C83.1654 10.4086 82.8576 10.6998 82.6303 11.0739C82.4031 11.4432 82.2894 11.8646 82.2894 12.3381V19H80.1658ZM96.0163 10.7543L94.0916 11.0952C94.0111 10.849 93.8833 10.6146 93.7081 10.392C93.5376 10.1695 93.3056 9.98722 93.0121 9.84517C92.7185 9.70312 92.3516 9.6321 91.9112 9.6321C91.3099 9.6321 90.808 9.76705 90.4055 10.0369C90.0031 10.3021 89.8018 10.6454 89.8018 11.0668C89.8018 11.4313 89.9368 11.7249 90.2067 11.9474C90.4766 12.17 90.9122 12.3523 91.5135 12.4943L93.2464 12.892C94.2502 13.1241 94.9983 13.4815 95.4908 13.9645C95.9832 14.4474 96.2294 15.0748 96.2294 15.8466C96.2294 16.5 96.04 17.0824 95.6612 17.5938C95.2872 18.1004 94.764 18.4981 94.0916 18.7869C93.424 19.0758 92.6499 19.2202 91.7692 19.2202C90.5476 19.2202 89.5509 18.9598 88.7791 18.4389C88.0073 17.9134 87.5339 17.1676 87.3587 16.2017L89.4112 15.8892C89.5391 16.4242 89.8018 16.8291 90.1996 17.1037C90.5973 17.3736 91.1158 17.5085 91.755 17.5085C92.451 17.5085 93.0073 17.3641 93.424 17.0753C93.8407 16.7817 94.049 16.4242 94.049 16.0028C94.049 15.6619 93.9212 15.3755 93.6655 15.1435C93.4145 14.9115 93.0286 14.7363 92.5078 14.6179L90.6612 14.2131C89.6432 13.9811 88.8904 13.6117 88.4027 13.1051C87.9197 12.5985 87.6783 11.9569 87.6783 11.1804C87.6783 10.5365 87.8582 9.97301 88.218 9.49006C88.5779 9.0071 89.075 8.63068 89.7095 8.3608C90.344 8.08617 91.0708 7.94886 91.8899 7.94886C93.0689 7.94886 93.9969 8.20455 94.674 8.71591C95.3511 9.22254 95.7985 9.90199 96.0163 10.7543ZM103.266 19.2202C102.191 19.2202 101.266 18.9905 100.489 18.5312C99.7172 18.0672 99.1206 17.4162 98.6992 16.5781C98.2826 15.7353 98.0742 14.7481 98.0742 13.6165C98.0742 12.4991 98.2826 11.5142 98.6992 10.6619C99.1206 9.80966 99.7077 9.14441 100.461 8.66619C101.218 8.18797 102.104 7.94886 103.117 7.94886C103.732 7.94886 104.329 8.05066 104.907 8.25426C105.484 8.45786 106.003 8.77746 106.462 9.21307C106.921 9.64867 107.283 10.2145 107.549 10.9105C107.814 11.6018 107.946 12.4422 107.946 13.4318V14.1847H99.2745V12.5938H105.865C105.865 12.035 105.752 11.5402 105.525 11.1094C105.297 10.6738 104.978 10.3305 104.566 10.0795C104.158 9.8286 103.68 9.70312 103.131 9.70312C102.534 9.70312 102.014 9.84991 101.569 10.1435C101.128 10.4323 100.787 10.8111 100.546 11.2798C100.309 11.7438 100.191 12.2481 100.191 12.7926V14.0355C100.191 14.7647 100.319 15.3849 100.574 15.8963C100.835 16.4077 101.197 16.7983 101.661 17.0682C102.125 17.3333 102.667 17.4659 103.287 17.4659C103.69 17.4659 104.057 17.4091 104.388 17.2955C104.72 17.1771 105.006 17.0019 105.248 16.7699C105.489 16.5379 105.674 16.2514 105.801 15.9105L107.811 16.2727C107.65 16.8646 107.362 17.383 106.945 17.8281C106.533 18.2685 106.015 18.6117 105.39 18.858C104.769 19.0994 104.061 19.2202 103.266 19.2202Z" fill="black"/>
<defs>
<clipPath id="clip0_164_2049">
<rect width="24" height="24" rx="12" fill="white"/>
</clipPath>
</defs>
</svg>
