<svg width="133" height="29" viewBox="0 0 133 29" fill="none" xmlns="http://www.w3.org/2000/svg">
<g filter="url(#filter0_b_164_1745)">
<rect y="0.444336" width="133" height="28" rx="14" fill="black" fill-opacity="0.1"/>
<path d="M21.6567 8.7876L10.343 20.1013" stroke="black"/>
<path d="M13.1717 8.78756H21.6569V17.2728" stroke="black"/>
<path d="M32.7727 20.6262C31.9545 20.6262 31.25 20.433 30.6591 20.0466C30.0682 19.6602 29.6136 19.128 29.2955 18.45C28.9773 17.772 28.8182 16.9974 28.8182 16.1262C28.8182 15.2398 28.9811 14.4576 29.3068 13.7796C29.6364 13.0977 30.0947 12.5655 30.6818 12.183C31.2727 11.7966 31.9621 11.6034 32.75 11.6034C33.3636 11.6034 33.9167 11.7171 34.4091 11.9443C34.9015 12.1716 35.3049 12.4898 35.6193 12.8989C35.9337 13.308 36.1288 13.7852 36.2045 14.3307H34.8636C34.7614 13.933 34.5341 13.5807 34.1818 13.2739C33.8333 12.9633 33.3636 12.808 32.7727 12.808C32.25 12.808 31.7917 12.9443 31.3977 13.2171C31.0076 13.486 30.7027 13.8667 30.483 14.3591C30.267 14.8477 30.1591 15.4216 30.1591 16.0807C30.1591 16.7549 30.2652 17.3421 30.4773 17.8421C30.6932 18.3421 30.9962 18.7303 31.3864 19.0068C31.7803 19.2834 32.2424 19.4216 32.7727 19.4216C33.1212 19.4216 33.4375 19.361 33.7216 19.2398C34.0057 19.1186 34.2462 18.9443 34.4432 18.7171C34.6402 18.4898 34.7803 18.2171 34.8636 17.8989H36.2045C36.1288 18.414 35.9413 18.878 35.642 19.2909C35.3466 19.7 34.9545 20.0258 34.4659 20.2682C33.9811 20.5068 33.4167 20.6262 32.7727 20.6262ZM41.7102 20.6262C40.9223 20.6262 40.2311 20.4387 39.6364 20.0637C39.0455 19.6887 38.5833 19.164 38.25 18.4898C37.9205 17.8155 37.7557 17.0277 37.7557 16.1262C37.7557 15.2171 37.9205 14.4235 38.25 13.7455C38.5833 13.0674 39.0455 12.5409 39.6364 12.1659C40.2311 11.7909 40.9223 11.6034 41.7102 11.6034C42.4981 11.6034 43.1875 11.7909 43.7784 12.1659C44.3731 12.5409 44.8352 13.0674 45.1648 13.7455C45.4981 14.4235 45.6648 15.2171 45.6648 16.1262C45.6648 17.0277 45.4981 17.8155 45.1648 18.4898C44.8352 19.164 44.3731 19.6887 43.7784 20.0637C43.1875 20.4387 42.4981 20.6262 41.7102 20.6262ZM41.7102 19.4216C42.3087 19.4216 42.8011 19.2682 43.1875 18.9614C43.5739 18.6546 43.8598 18.2512 44.0455 17.7512C44.2311 17.2512 44.3239 16.7095 44.3239 16.1262C44.3239 15.5428 44.2311 14.9993 44.0455 14.4955C43.8598 13.9917 43.5739 13.5845 43.1875 13.2739C42.8011 12.9633 42.3087 12.808 41.7102 12.808C41.1117 12.808 40.6193 12.9633 40.233 13.2739C39.8466 13.5845 39.5606 13.9917 39.375 14.4955C39.1894 14.9993 39.0966 15.5428 39.0966 16.1262C39.0966 16.7095 39.1894 17.2512 39.375 17.7512C39.5606 18.2512 39.8466 18.6546 40.233 18.9614C40.6193 19.2682 41.1117 19.4216 41.7102 19.4216ZM49.0526 15.1943V20.4443H47.7116V11.7171H49.0071V13.0807H49.1207C49.3253 12.6375 49.6359 12.2815 50.0526 12.0125C50.4692 11.7398 51.0071 11.6034 51.6662 11.6034C52.2571 11.6034 52.7741 11.7246 53.2173 11.9671C53.6605 12.2057 54.0052 12.5693 54.2514 13.058C54.4976 13.5428 54.6207 14.1565 54.6207 14.8989V20.4443H53.2798V14.9898C53.2798 14.3042 53.1018 13.7701 52.7457 13.3875C52.3897 13.0012 51.901 12.808 51.2798 12.808C50.8518 12.808 50.4692 12.9008 50.1321 13.0864C49.7988 13.272 49.5355 13.5428 49.3423 13.8989C49.1491 14.2549 49.0526 14.6868 49.0526 15.1943ZM60.8665 11.7171V12.8534H56.3438V11.7171H60.8665ZM57.6619 9.62615H59.0028V17.9443C59.0028 18.3231 59.0578 18.6072 59.1676 18.7966C59.2813 18.9822 59.4252 19.1072 59.5994 19.1716C59.7775 19.2322 59.965 19.2625 60.1619 19.2625C60.3097 19.2625 60.4309 19.2549 60.5256 19.2398C60.6203 19.2209 60.696 19.2057 60.7528 19.1943L61.0256 20.3989C60.9347 20.433 60.8078 20.4671 60.6449 20.5012C60.482 20.539 60.2756 20.558 60.0256 20.558C59.6468 20.558 59.2756 20.4765 58.9119 20.3137C58.5521 20.1508 58.2528 19.9027 58.0142 19.5693C57.7794 19.236 57.6619 18.8155 57.6619 18.308V9.62615ZM65.4517 20.6489C64.8987 20.6489 64.3968 20.5447 63.946 20.3364C63.4953 20.1243 63.1373 19.8193 62.8722 19.4216C62.607 19.0201 62.4744 18.5352 62.4744 17.9671C62.4744 17.4671 62.5729 17.0618 62.7699 16.7512C62.9669 16.4368 63.2301 16.1905 63.5597 16.0125C63.8892 15.8345 64.2528 15.7019 64.6506 15.6148C65.0521 15.5239 65.4555 15.4519 65.8608 15.3989C66.3911 15.3307 66.821 15.2796 67.1506 15.2455C67.4839 15.2076 67.7263 15.1451 67.8778 15.058C68.0331 14.9709 68.1108 14.8193 68.1108 14.6034V14.558C68.1108 13.9974 67.9574 13.5618 67.6506 13.2512C67.3475 12.9405 66.8873 12.7852 66.2699 12.7852C65.6297 12.7852 65.1278 12.9254 64.7642 13.2057C64.4006 13.486 64.1449 13.7852 63.9972 14.1034L62.7244 13.6489C62.9517 13.1186 63.2547 12.7057 63.6335 12.4102C64.0161 12.111 64.4328 11.9027 64.8835 11.7852C65.3381 11.664 65.785 11.6034 66.2244 11.6034C66.5047 11.6034 66.8267 11.6375 67.1903 11.7057C67.5578 11.7701 67.9119 11.9046 68.2528 12.1091C68.5975 12.3137 68.8835 12.6224 69.1108 13.0352C69.3381 13.4481 69.4517 14.0012 69.4517 14.6943V20.4443H68.1108V19.2625H68.0426C67.9517 19.4519 67.8002 19.6546 67.5881 19.8705C67.3759 20.0864 67.0938 20.2701 66.7415 20.4216C66.3892 20.5731 65.9593 20.6489 65.4517 20.6489ZM65.6562 19.4443C66.1866 19.4443 66.6335 19.3402 66.9972 19.1318C67.3646 18.9235 67.6411 18.6546 67.8267 18.325C68.0161 17.9955 68.1108 17.6489 68.1108 17.2852V16.058C68.054 16.1262 67.929 16.1887 67.7358 16.2455C67.5464 16.2985 67.3267 16.3459 67.0767 16.3875C66.8305 16.4254 66.59 16.4595 66.3551 16.4898C66.1241 16.5163 65.9366 16.539 65.7926 16.558C65.4441 16.6034 65.1184 16.6773 64.8153 16.7796C64.5161 16.878 64.2737 17.0277 64.0881 17.2284C63.9063 17.4254 63.8153 17.6943 63.8153 18.0352C63.8153 18.5012 63.9877 18.8534 64.3324 19.0921C64.6809 19.3269 65.1222 19.4443 65.6562 19.4443ZM75.4446 20.6262C74.6264 20.6262 73.9219 20.433 73.331 20.0466C72.7401 19.6602 72.2855 19.128 71.9673 18.45C71.6491 17.772 71.4901 16.9974 71.4901 16.1262C71.4901 15.2398 71.6529 14.4576 71.9787 13.7796C72.3082 13.0977 72.7666 12.5655 73.3537 12.183C73.9446 11.7966 74.634 11.6034 75.4219 11.6034C76.0355 11.6034 76.5885 11.7171 77.081 11.9443C77.5734 12.1716 77.9768 12.4898 78.2912 12.8989C78.6056 13.308 78.8007 13.7852 78.8764 14.3307H77.5355C77.4332 13.933 77.206 13.5807 76.8537 13.2739C76.5052 12.9633 76.0355 12.808 75.4446 12.808C74.9219 12.808 74.4635 12.9443 74.0696 13.2171C73.6795 13.486 73.3745 13.8667 73.1548 14.3591C72.9389 14.8477 72.831 15.4216 72.831 16.0807C72.831 16.7549 72.937 17.3421 73.1491 17.8421C73.3651 18.3421 73.6681 18.7303 74.0582 19.0068C74.4522 19.2834 74.9143 19.4216 75.4446 19.4216C75.7931 19.4216 76.1094 19.361 76.3935 19.2398C76.6776 19.1186 76.9181 18.9443 77.1151 18.7171C77.312 18.4898 77.4522 18.2171 77.5355 17.8989H78.8764C78.8007 18.414 78.6132 18.878 78.3139 19.2909C78.0185 19.7 77.6264 20.0258 77.1378 20.2682C76.6529 20.5068 76.0885 20.6262 75.4446 20.6262ZM84.6321 11.7171V12.8534H80.1094V11.7171H84.6321ZM81.4276 9.62615H82.7685V17.9443C82.7685 18.3231 82.8234 18.6072 82.9332 18.7966C83.0469 18.9822 83.1908 19.1072 83.3651 19.1716C83.5431 19.2322 83.7306 19.2625 83.9276 19.2625C84.0753 19.2625 84.1965 19.2549 84.2912 19.2398C84.3859 19.2209 84.4616 19.2057 84.5185 19.1943L84.7912 20.3989C84.7003 20.433 84.5734 20.4671 84.4105 20.5012C84.2476 20.539 84.0412 20.558 83.7912 20.558C83.4124 20.558 83.0412 20.4765 82.6776 20.3137C82.3177 20.1508 82.0185 19.9027 81.7798 19.5693C81.545 19.236 81.4276 18.8155 81.4276 18.308V9.62615ZM95.0355 11.7171V12.8534H90.331V11.7171H95.0355ZM91.7401 20.4443V10.5125C91.7401 10.0125 91.8575 9.59585 92.0923 9.26252C92.3272 8.92918 92.6321 8.67918 93.0071 8.51252C93.3821 8.34585 93.7779 8.26252 94.1946 8.26252C94.5241 8.26252 94.7931 8.28903 95.0014 8.34206C95.2098 8.39509 95.3651 8.44434 95.4673 8.48979L95.081 9.64888C95.0128 9.62615 94.9181 9.59774 94.7969 9.56365C94.6795 9.52956 94.5241 9.51252 94.331 9.51252C93.8878 9.51252 93.5677 9.62426 93.3707 9.84774C93.1776 10.0712 93.081 10.3989 93.081 10.8307V20.4443H91.7401ZM100.101 20.6262C99.313 20.6262 98.6217 20.4387 98.027 20.0637C97.4361 19.6887 96.974 19.164 96.6406 18.4898C96.3111 17.8155 96.1463 17.0277 96.1463 16.1262C96.1463 15.2171 96.3111 14.4235 96.6406 13.7455C96.974 13.0674 97.4361 12.5409 98.027 12.1659C98.6217 11.7909 99.313 11.6034 100.101 11.6034C100.889 11.6034 101.578 11.7909 102.169 12.1659C102.764 12.5409 103.226 13.0674 103.555 13.7455C103.889 14.4235 104.055 15.2171 104.055 16.1262C104.055 17.0277 103.889 17.8155 103.555 18.4898C103.226 19.164 102.764 19.6887 102.169 20.0637C101.578 20.4387 100.889 20.6262 100.101 20.6262ZM100.101 19.4216C100.699 19.4216 101.192 19.2682 101.578 18.9614C101.964 18.6546 102.25 18.2512 102.436 17.7512C102.622 17.2512 102.714 16.7095 102.714 16.1262C102.714 15.5428 102.622 14.9993 102.436 14.4955C102.25 13.9917 101.964 13.5845 101.578 13.2739C101.192 12.9633 100.699 12.808 100.101 12.808C99.5024 12.808 99.0099 12.9633 98.6236 13.2739C98.2372 13.5845 97.9512 13.9917 97.7656 14.4955C97.58 14.9993 97.4872 15.5428 97.4872 16.1262C97.4872 16.7095 97.58 17.2512 97.7656 17.7512C97.9512 18.2512 98.2372 18.6546 98.6236 18.9614C99.0099 19.2682 99.5024 19.4216 100.101 19.4216ZM106.102 20.4443V11.7171H107.398V13.0352H107.489C107.648 12.6034 107.936 12.253 108.352 11.9841C108.769 11.7152 109.239 11.5807 109.761 11.5807C109.86 11.5807 109.983 11.5826 110.131 11.5864C110.278 11.5902 110.39 11.5959 110.466 11.6034V12.9671C110.42 12.9557 110.316 12.9387 110.153 12.9159C109.994 12.8894 109.826 12.8762 109.648 12.8762C109.223 12.8762 108.845 12.9652 108.511 13.1432C108.182 13.3174 107.92 13.5599 107.727 13.8705C107.538 14.1773 107.443 14.5277 107.443 14.9216V20.4443H106.102ZM112.055 20.4443V11.7171H113.351V13.0807H113.464C113.646 12.6148 113.94 12.253 114.345 11.9955C114.75 11.7341 115.237 11.6034 115.805 11.6034C116.381 11.6034 116.86 11.7341 117.243 11.9955C117.629 12.253 117.93 12.6148 118.146 13.0807H118.237C118.461 12.6299 118.796 12.272 119.243 12.0068C119.69 11.7379 120.226 11.6034 120.851 11.6034C121.631 11.6034 122.269 11.8477 122.766 12.3364C123.262 12.8212 123.51 13.5769 123.51 14.6034V20.4443H122.169V14.6034C122.169 13.9595 121.993 13.4993 121.641 13.2227C121.288 12.9462 120.874 12.808 120.396 12.808C119.783 12.808 119.307 12.9936 118.97 13.3648C118.633 13.7322 118.464 14.1981 118.464 14.7625V20.4443H117.101V14.4671C117.101 13.9709 116.94 13.5712 116.618 13.2682C116.296 12.9614 115.881 12.808 115.374 12.808C115.025 12.808 114.699 12.9008 114.396 13.0864C114.097 13.272 113.855 13.5296 113.669 13.8591C113.487 14.1849 113.396 14.5618 113.396 14.9898V20.4443H112.055Z" fill="black"/>
</g>
<defs>
<filter id="filter0_b_164_1745" x="-20" y="-19.5557" width="173" height="68" filterUnits="userSpaceOnUse" color-interpolation-filters="sRGB">
<feFlood flood-opacity="0" result="BackgroundImageFix"/>
<feGaussianBlur in="BackgroundImageFix" stdDeviation="10"/>
<feComposite in2="SourceAlpha" operator="in" result="effect1_backgroundBlur_164_1745"/>
<feBlend mode="normal" in="SourceGraphic" in2="effect1_backgroundBlur_164_1745" result="shape"/>
</filter>
</defs>
</svg>
