<svg width="69" height="29" viewBox="0 0 69 29" fill="none" xmlns="http://www.w3.org/2000/svg">
<g filter="url(#filter0_b_164_1740)">
<rect y="0.444336" width="69" height="28" rx="14" fill="black" fill-opacity="0.1"/>
<path d="M21.6567 8.7876L10.343 20.1013" stroke="black"/>
<path d="M13.1717 8.78756H21.6569V17.2728" stroke="black"/>
<path d="M29.2273 20.4443V11.7171H30.5227V13.0807H30.6364C30.8182 12.6148 31.1117 12.253 31.517 11.9955C31.9223 11.7341 32.4091 11.6034 32.9773 11.6034C33.553 11.6034 34.0322 11.7341 34.4148 11.9955C34.8011 12.253 35.1023 12.6148 35.3182 13.0807H35.4091C35.6326 12.6299 35.9678 12.272 36.4148 12.0068C36.8617 11.7379 37.3977 11.6034 38.0227 11.6034C38.803 11.6034 39.4413 11.8477 39.9375 12.3364C40.4337 12.8212 40.6818 13.5769 40.6818 14.6034V20.4443H39.3409V14.6034C39.3409 13.9595 39.1648 13.4993 38.8125 13.2227C38.4602 12.9462 38.0455 12.808 37.5682 12.808C36.9545 12.808 36.4792 12.9936 36.142 13.3648C35.8049 13.7322 35.6364 14.1981 35.6364 14.7625V20.4443H34.2727V14.4671C34.2727 13.9709 34.1117 13.5712 33.7898 13.2682C33.4678 12.9614 33.053 12.808 32.5455 12.808C32.197 12.808 31.8712 12.9008 31.5682 13.0864C31.2689 13.272 31.0265 13.5296 30.8409 13.8591C30.6591 14.1849 30.5682 14.5618 30.5682 14.9898V20.4443H29.2273ZM45.7017 20.6489C45.1487 20.6489 44.6468 20.5447 44.196 20.3364C43.7453 20.1243 43.3873 19.8193 43.1222 19.4216C42.857 19.0201 42.7244 18.5352 42.7244 17.9671C42.7244 17.4671 42.8229 17.0618 43.0199 16.7512C43.2169 16.4368 43.4801 16.1905 43.8097 16.0125C44.1392 15.8345 44.5028 15.7019 44.9006 15.6148C45.3021 15.5239 45.7055 15.4519 46.1108 15.3989C46.6411 15.3307 47.071 15.2796 47.4006 15.2455C47.7339 15.2076 47.9763 15.1451 48.1278 15.058C48.2831 14.9709 48.3608 14.8193 48.3608 14.6034V14.558C48.3608 13.9974 48.2074 13.5618 47.9006 13.2512C47.5975 12.9405 47.1373 12.7852 46.5199 12.7852C45.8797 12.7852 45.3778 12.9254 45.0142 13.2057C44.6506 13.486 44.3949 13.7852 44.2472 14.1034L42.9744 13.6489C43.2017 13.1186 43.5047 12.7057 43.8835 12.4102C44.2661 12.111 44.6828 11.9027 45.1335 11.7852C45.5881 11.664 46.035 11.6034 46.4744 11.6034C46.7547 11.6034 47.0767 11.6375 47.4403 11.7057C47.8078 11.7701 48.1619 11.9046 48.5028 12.1091C48.8475 12.3137 49.1335 12.6224 49.3608 13.0352C49.5881 13.4481 49.7017 14.0012 49.7017 14.6943V20.4443H48.3608V19.2625H48.2926C48.2017 19.4519 48.0502 19.6546 47.8381 19.8705C47.6259 20.0864 47.3438 20.2701 46.9915 20.4216C46.6392 20.5731 46.2093 20.6489 45.7017 20.6489ZM45.9062 19.4443C46.4366 19.4443 46.8835 19.3402 47.2472 19.1318C47.6146 18.9235 47.8911 18.6546 48.0767 18.325C48.2661 17.9955 48.3608 17.6489 48.3608 17.2852V16.058C48.304 16.1262 48.179 16.1887 47.9858 16.2455C47.7964 16.2985 47.5767 16.3459 47.3267 16.3875C47.0805 16.4254 46.84 16.4595 46.6051 16.4898C46.3741 16.5163 46.1866 16.539 46.0426 16.558C45.6941 16.6034 45.3684 16.6773 45.0653 16.7796C44.7661 16.878 44.5237 17.0277 44.3381 17.2284C44.1563 17.4254 44.0653 17.6943 44.0653 18.0352C44.0653 18.5012 44.2377 18.8534 44.5824 19.0921C44.9309 19.3269 45.3722 19.4443 45.9062 19.4443ZM52.1491 23.7171V11.7171H53.4446V13.1034H53.6037C53.7022 12.9519 53.8385 12.7587 54.0128 12.5239C54.1908 12.2852 54.4446 12.0731 54.7741 11.8875C55.1075 11.6981 55.5582 11.6034 56.1264 11.6034C56.8613 11.6034 57.509 11.7871 58.0696 12.1546C58.6302 12.522 59.0677 13.0428 59.3821 13.7171C59.6965 14.3913 59.8537 15.1868 59.8537 16.1034C59.8537 17.0277 59.6965 17.8288 59.3821 18.5068C59.0677 19.1811 58.6321 19.7038 58.0753 20.075C57.5185 20.4424 56.8764 20.6262 56.1491 20.6262C55.5885 20.6262 55.1397 20.5334 54.8026 20.3477C54.4654 20.1584 54.206 19.9443 54.0241 19.7057C53.8423 19.4633 53.7022 19.2625 53.6037 19.1034H53.4901V23.7171H52.1491ZM53.4673 16.0807C53.4673 16.7398 53.5639 17.3212 53.7571 17.825C53.9503 18.325 54.2325 18.7171 54.6037 19.0012C54.9749 19.2815 55.4295 19.4216 55.9673 19.4216C56.5279 19.4216 56.9957 19.2739 57.3707 18.9784C57.7495 18.6792 58.0336 18.2777 58.223 17.7739C58.4162 17.2663 58.5128 16.7019 58.5128 16.0807C58.5128 15.4671 58.4181 14.914 58.2287 14.4216C58.0431 13.9254 57.7609 13.5334 57.3821 13.2455C57.0071 12.9538 56.5355 12.808 55.9673 12.808C55.4219 12.808 54.9635 12.9462 54.5923 13.2227C54.2211 13.4955 53.9408 13.878 53.7514 14.3705C53.562 14.8591 53.4673 15.4292 53.4673 16.0807Z" fill="black"/>
</g>
<defs>
<filter id="filter0_b_164_1740" x="-20" y="-19.5557" width="109" height="68" filterUnits="userSpaceOnUse" color-interpolation-filters="sRGB">
<feFlood flood-opacity="0" result="BackgroundImageFix"/>
<feGaussianBlur in="BackgroundImageFix" stdDeviation="10"/>
<feComposite in2="SourceAlpha" operator="in" result="effect1_backgroundBlur_164_1740"/>
<feBlend mode="normal" in="SourceGraphic" in2="effect1_backgroundBlur_164_1740" result="shape"/>
</filter>
</defs>
</svg>
