<svg width="12" height="12" viewBox="0 0 12 12" fill="none" xmlns="http://www.w3.org/2000/svg">
<path d="M6 11.1084C6.05208 11.1084 6.11068 11.0938 6.17578 11.0645C6.24414 11.0384 6.30436 11.0091 6.35645 10.9766C7.27441 10.3906 8.06868 9.77702 8.73926 9.13574C9.41309 8.49121 9.93229 7.8304 10.2969 7.15332C10.6647 6.47298 10.8486 5.78613 10.8486 5.09277C10.8486 4.65983 10.7786 4.26432 10.6387 3.90625C10.502 3.54492 10.3099 3.23242 10.0625 2.96875C9.81836 2.70508 9.53027 2.50163 9.19824 2.3584C8.86947 2.21517 8.51302 2.14355 8.12891 2.14355C7.65365 2.14355 7.23535 2.26562 6.87402 2.50977C6.5127 2.75065 6.22135 3.07292 6 3.47656C5.7819 3.07617 5.49219 2.75391 5.13086 2.50977C4.76953 2.26562 4.34961 2.14355 3.87109 2.14355C3.48698 2.14355 3.13053 2.21517 2.80176 2.3584C2.47298 2.50163 2.1849 2.70508 1.9375 2.96875C1.6901 3.23242 1.49642 3.54492 1.35645 3.90625C1.21973 4.26432 1.15137 4.65983 1.15137 5.09277C1.15137 5.78613 1.33366 6.47298 1.69824 7.15332C2.06608 7.8304 2.58691 8.49121 3.26074 9.13574C3.93457 9.77702 4.73047 10.3906 5.64844 10.9766C5.70052 11.0091 5.75911 11.0384 5.82422 11.0645C5.89258 11.0938 5.95117 11.1084 6 11.1084Z" fill="black" fill-opacity="0.1"/>
</svg>
