<svg width="16" height="16" viewBox="0 0 16 16" fill="none" xmlns="http://www.w3.org/2000/svg">
<path fill-rule="evenodd" clip-rule="evenodd" d="M10.5 4C10.5 3.17157 11.1716 2.5 12 2.5C12.8284 2.5 13.5 3.17157 13.5 4C13.5 4.82843 12.8284 5.5 12 5.5C11.1716 5.5 10.5 4.82843 10.5 4ZM12 1.5C10.6193 1.5 9.5 2.61929 9.5 4C9.5 5.38071 10.6193 6.5 12 6.5C13.3807 6.5 14.5 5.38071 14.5 4C14.5 2.61929 13.3807 1.5 12 1.5ZM8 6.5C7.17157 6.5 6.5 7.17157 6.5 8C6.5 8.82843 7.17157 9.5 8 9.5C8.82843 9.5 9.5 8.82843 9.5 8C9.5 7.17157 8.82843 6.5 8 6.5ZM5.5 8C5.5 6.61929 6.61929 5.5 8 5.5C9.38071 5.5 10.5 6.61929 10.5 8C10.5 9.38071 9.38071 10.5 8 10.5C6.61929 10.5 5.5 9.38071 5.5 8ZM4 10.5C3.17157 10.5 2.5 11.1716 2.5 12C2.5 12.8284 3.17157 13.5 4 13.5C4.82843 13.5 5.5 12.8284 5.5 12C5.5 11.1716 4.82843 10.5 4 10.5ZM1.5 12C1.5 10.6193 2.61929 9.5 4 9.5C5.38071 9.5 6.5 10.6193 6.5 12C6.5 13.3807 5.38071 14.5 4 14.5C2.61929 14.5 1.5 13.3807 1.5 12Z" fill="black"/>
</svg>
