<svg width="16" height="16" viewBox="0 0 16 16" fill="none" xmlns="http://www.w3.org/2000/svg">
<path fill-rule="evenodd" clip-rule="evenodd" d="M10.6924 1.5H5.3076L1.5 5.3076L1.5 10.6924L5.30763 14.5H10.6924L14.5 10.6924V5.30759L10.6924 1.5ZM4.81804 15.4246L5 15.2427V15.5H11V15.2426L11.182 15.4246L15.4246 11.182L15.2426 11H15.5V5H15.2427L15.4246 4.81802L11.182 0.575379L11 0.757381V0.5H5V0.757294L4.81805 0.575341L0.575406 4.81798L0.757426 5H0.5V11H0.757382L0.575401 11.182L4.81804 15.4246ZM5 10.5L11 10.5V9.5L5 9.5V10.5ZM4.5 6L4.5 8H3.5V6H4.5ZM12.5 8V6H11.5V8H12.5Z" fill="black"/>
</svg>
